<mxfile host="Electron" modified="2024-05-09T09:00:46.123Z" agent="Mozilla/5.0 (X11; Linux x86_64) AppleWebKit/537.36 (KHTML, like Gecko) draw.io/24.2.5 Chrome/120.0.6099.109 Electron/28.1.0 Safari/537.36" etag="VmrVSwnyx7552ej7_h_h" version="24.2.5" type="device">
  <diagram name="第 1 页" id="uVq8NE7iuqZhJokcoE-w">
    <mxGraphModel dx="454" dy="316" grid="1" gridSize="10" guides="1" tooltips="1" connect="1" arrows="1" fold="1" page="1" pageScale="1" pageWidth="827" pageHeight="1169" math="0" shadow="0">
      <root>
        <mxCell id="0" />
        <mxCell id="1" parent="0" />
        <mxCell id="NxXTA6daYU6lzeAcVN2i-1" value="" style="verticalLabelPosition=bottom;shadow=0;dashed=0;align=center;html=1;verticalAlign=top;shape=mxgraph.electrical.transistors.nmos;pointerEvents=1;flipH=0;" vertex="1" parent="1">
          <mxGeometry x="220" y="317" width="60" height="100" as="geometry" />
        </mxCell>
        <mxCell id="NxXTA6daYU6lzeAcVN2i-2" value="" style="pointerEvents=1;verticalLabelPosition=bottom;shadow=0;dashed=0;align=center;html=1;verticalAlign=top;shape=mxgraph.electrical.signal_sources.signal_ground;" vertex="1" parent="1">
          <mxGeometry x="337.5" y="520" width="45" height="30" as="geometry" />
        </mxCell>
        <mxCell id="NxXTA6daYU6lzeAcVN2i-3" value="" style="pointerEvents=1;verticalLabelPosition=bottom;shadow=0;dashed=0;align=center;html=1;verticalAlign=top;shape=mxgraph.electrical.resistors.resistor_2;rotation=90;" vertex="1" parent="1">
          <mxGeometry x="390" y="440" width="100" height="20" as="geometry" />
        </mxCell>
        <mxCell id="NxXTA6daYU6lzeAcVN2i-4" value="V&lt;sub&gt;dd&lt;/sub&gt;" style="verticalLabelPosition=top;verticalAlign=bottom;shape=mxgraph.electrical.signal_sources.vdd;shadow=0;dashed=0;align=center;strokeWidth=1;fontSize=24;html=1;flipV=1;" vertex="1" parent="1">
          <mxGeometry x="330" y="220" width="60" height="40" as="geometry" />
        </mxCell>
        <mxCell id="NxXTA6daYU6lzeAcVN2i-5" value="" style="endArrow=none;html=1;strokeWidth=1;rounded=0;" edge="1" parent="1">
          <mxGeometry width="100" relative="1" as="geometry">
            <mxPoint x="440" y="402" as="sourcePoint" />
            <mxPoint x="480" y="402" as="targetPoint" />
          </mxGeometry>
        </mxCell>
        <mxCell id="NxXTA6daYU6lzeAcVN2i-6" value="" style="verticalLabelPosition=bottom;shadow=0;dashed=0;align=center;html=1;verticalAlign=top;strokeWidth=1;shape=ellipse;" vertex="1" parent="1">
          <mxGeometry x="475" y="397" width="10" height="10" as="geometry" />
        </mxCell>
        <mxCell id="NxXTA6daYU6lzeAcVN2i-8" value="&lt;font style=&quot;font-size: 20px;&quot;&gt;R&lt;sub&gt;D&lt;/sub&gt;&lt;/font&gt;" style="text;html=1;align=center;verticalAlign=middle;whiteSpace=wrap;rounded=0;" vertex="1" parent="1">
          <mxGeometry x="450" y="435" width="60" height="30" as="geometry" />
        </mxCell>
        <mxCell id="NxXTA6daYU6lzeAcVN2i-9" value="&lt;span style=&quot;font-size: 20px;&quot;&gt;V&lt;/span&gt;&lt;span style=&quot;font-size: 16.6667px;&quot;&gt;&lt;sub&gt;B&lt;/sub&gt;&lt;/span&gt;" style="text;html=1;align=center;verticalAlign=middle;whiteSpace=wrap;rounded=0;" vertex="1" parent="1">
          <mxGeometry x="490" y="352" width="60" height="30" as="geometry" />
        </mxCell>
        <mxCell id="NxXTA6daYU6lzeAcVN2i-10" value="&lt;span style=&quot;font-size: 20px;&quot;&gt;V&lt;/span&gt;&lt;span style=&quot;font-size: 13.8889px;&quot;&gt;in&lt;/span&gt;" style="text;html=1;align=center;verticalAlign=middle;whiteSpace=wrap;rounded=0;" vertex="1" parent="1">
          <mxGeometry x="170" y="352" width="60" height="30" as="geometry" />
        </mxCell>
        <mxCell id="NxXTA6daYU6lzeAcVN2i-11" value="&lt;span style=&quot;font-size: 20px;&quot;&gt;V&lt;/span&gt;&lt;span style=&quot;font-size: 13.8889px;&quot;&gt;out&lt;/span&gt;" style="text;html=1;align=center;verticalAlign=middle;whiteSpace=wrap;rounded=0;" vertex="1" parent="1">
          <mxGeometry x="485" y="387" width="60" height="30" as="geometry" />
        </mxCell>
        <mxCell id="NxXTA6daYU6lzeAcVN2i-12" value="&lt;span style=&quot;font-size: 20px;&quot;&gt;M&lt;sub&gt;1&lt;/sub&gt;&lt;/span&gt;" style="text;html=1;align=center;verticalAlign=middle;whiteSpace=wrap;rounded=0;" vertex="1" parent="1">
          <mxGeometry x="270" y="352" width="60" height="30" as="geometry" />
        </mxCell>
        <mxCell id="NxXTA6daYU6lzeAcVN2i-13" value="&lt;span style=&quot;font-size: 20px;&quot;&gt;M&lt;sub&gt;2&lt;/sub&gt;&lt;/span&gt;" style="text;html=1;align=center;verticalAlign=middle;whiteSpace=wrap;rounded=0;" vertex="1" parent="1">
          <mxGeometry x="400" y="352" width="60" height="30" as="geometry" />
        </mxCell>
        <mxCell id="NxXTA6daYU6lzeAcVN2i-14" value="" style="verticalLabelPosition=bottom;shadow=0;dashed=0;align=center;html=1;verticalAlign=top;shape=mxgraph.electrical.transistors.pmos;pointerEvents=1;flipH=1;" vertex="1" parent="1">
          <mxGeometry x="440" y="317" width="60" height="100" as="geometry" />
        </mxCell>
        <mxCell id="NxXTA6daYU6lzeAcVN2i-15" value="" style="verticalLabelPosition=bottom;shadow=0;dashed=0;align=center;html=1;verticalAlign=top;strokeWidth=1;shape=ellipse;" vertex="1" parent="1">
          <mxGeometry x="220" y="362" width="10" height="10" as="geometry" />
        </mxCell>
        <mxCell id="NxXTA6daYU6lzeAcVN2i-17" value="" style="pointerEvents=1;verticalLabelPosition=bottom;shadow=0;dashed=0;align=center;html=1;verticalAlign=top;shape=mxgraph.electrical.signal_sources.source;aspect=fixed;points=[[0.5,0,0],[1,0.5,0],[0.5,1,0],[0,0.5,0]];elSignalType=dc1;rotation=90;" vertex="1" parent="1">
          <mxGeometry x="330" y="240" width="60" height="60" as="geometry" />
        </mxCell>
        <mxCell id="NxXTA6daYU6lzeAcVN2i-24" value="" style="endArrow=none;html=1;rounded=0;entryX=1;entryY=0.5;entryDx=0;entryDy=0;entryPerimeter=0;exitX=1;exitY=1;exitDx=0;exitDy=0;exitPerimeter=0;" edge="1" parent="1" source="NxXTA6daYU6lzeAcVN2i-1" target="NxXTA6daYU6lzeAcVN2i-3">
          <mxGeometry width="50" height="50" relative="1" as="geometry">
            <mxPoint x="330" y="510" as="sourcePoint" />
            <mxPoint x="380" y="460" as="targetPoint" />
            <Array as="points">
              <mxPoint x="280" y="520" />
              <mxPoint x="440" y="520" />
            </Array>
          </mxGeometry>
        </mxCell>
        <mxCell id="NxXTA6daYU6lzeAcVN2i-7" value="" style="verticalLabelPosition=bottom;shadow=0;dashed=0;align=center;html=1;verticalAlign=top;strokeWidth=1;shape=ellipse;" vertex="1" parent="1">
          <mxGeometry x="490" y="362" width="10" height="10" as="geometry" />
        </mxCell>
        <mxCell id="NxXTA6daYU6lzeAcVN2i-26" value="" style="endArrow=none;html=1;rounded=0;exitX=1;exitY=0;exitDx=0;exitDy=0;exitPerimeter=0;entryX=1;entryY=0;entryDx=0;entryDy=0;entryPerimeter=0;" edge="1" parent="1" source="NxXTA6daYU6lzeAcVN2i-1" target="NxXTA6daYU6lzeAcVN2i-14">
          <mxGeometry width="50" height="50" relative="1" as="geometry">
            <mxPoint x="390" y="340" as="sourcePoint" />
            <mxPoint x="440" y="290" as="targetPoint" />
          </mxGeometry>
        </mxCell>
        <mxCell id="NxXTA6daYU6lzeAcVN2i-27" value="" style="endArrow=none;html=1;rounded=0;entryX=1;entryY=0.5;entryDx=0;entryDy=0;entryPerimeter=0;" edge="1" parent="1" target="NxXTA6daYU6lzeAcVN2i-17">
          <mxGeometry width="50" height="50" relative="1" as="geometry">
            <mxPoint x="360" y="320" as="sourcePoint" />
            <mxPoint x="420" y="300" as="targetPoint" />
          </mxGeometry>
        </mxCell>
      </root>
    </mxGraphModel>
  </diagram>
</mxfile>
